<svg width="16" height="14" viewBox="0 0 16 14" fill="none" xmlns="http://www.w3.org/2000/svg">
<path d="M8 5.236L7.106 3.447C6.884 3.004 6.499 2.367 5.954 1.852C5.418 1.345 4.776 1 4 1C2.324 1 1 2.326 1 3.92C1 5.131 1.554 5.986 2.868 7.29C3.205 7.624 3.589 7.985 4.014 8.383C5.122 9.423 6.5 10.717 8 12.447C9.5 10.717 10.878 9.423 11.986 8.383C12.411 7.985 12.796 7.623 13.132 7.29C14.446 5.986 15 5.131 15 3.92C15 2.326 13.676 1 12 1C11.223 1 10.582 1.345 10.046 1.852C9.501 2.367 9.116 3.004 8.894 3.447L8 5.236ZM8.392 13.528C8.34384 13.585 8.28382 13.6309 8.21611 13.6623C8.14841 13.6938 8.07465 13.7101 8 13.7101C7.92535 13.7101 7.85159 13.6938 7.78389 13.6623C7.71618 13.6309 7.65616 13.585 7.608 13.528C6.007 11.626 4.558 10.266 3.365 9.147C1.3 7.208 0 5.989 0 3.92C0 1.755 1.79 0 4 0C5.6 0 6.719 1.05 7.404 2.008C7.664 2.373 7.862 2.724 8 3C8.17299 2.65457 8.37225 2.32293 8.596 2.008C9.281 1.049 10.4 0 12 0C14.21 0 16 1.755 16 3.92C16 5.989 14.7 7.208 12.635 9.147C11.442 10.267 9.993 11.628 8.392 13.528Z" fill="#A5A5A5"/>
</svg>
